<svg xmlns="http://www.w3.org/2000/svg" viewBox="0 0 785 785"><rect width="785" height="785" rx="185" fill="#4f46e5"/><g transform="translate(118 118) scale(0.7)"><path d="M392.112 784.217C335.034 784.217 279.989 772.218 228.505 748.552C214.571 742.144 208.466 725.656 214.871 711.718C221.278 697.783 237.77 691.669 251.704 698.083C295.859 718.384 343.102 728.673 392.112 728.673C577.693 728.673 728.677 577.693 728.677 392.112C728.677 206.527 577.693 55.5436 392.112 55.5436C206.531 55.5436 55.5471 206.527 55.5471 392.112C55.5471 453.774 72.3664 514.072 104.177 566.479C112.141 579.594 107.962 596.675 94.8539 604.632C81.7319 612.598 64.6579 608.416 56.7016 595.308C19.6063 534.201 0 463.938 0 392.112C0 175.902 175.902 6.10352e-05 392.112 6.10352e-05C608.322 6.10352e-05 784.224 175.902 784.224 392.112C784.224 608.322 608.322 784.217 392.112 784.217Z" fill="white"/><path d="M379.221 432.131C319.669 432.131 271.391 383.853 271.391 324.302C271.391 264.75 319.669 216.472 379.221 216.472C438.772 216.472 487.05 264.75 487.05 324.302C487.05 383.853 438.772 432.131 379.221 432.131ZM509.224 226.043C526.751 226.043 540.965 211.833 540.965 194.302C540.965 176.771 526.751 162.561 509.224 162.561C491.689 162.561 477.479 176.771 477.479 194.302C477.479 194.944 477.632 195.544 477.667 196.179C450.384 175.181 416.313 162.561 379.221 162.561C289.892 162.561 217.477 234.973 217.477 324.302C217.477 413.631 289.892 486.046 379.221 486.046C468.549 486.046 540.965 413.631 540.965 324.302C540.965 287.21 528.342 253.139 507.344 225.855C507.978 225.89 508.578 226.043 509.224 226.043Z" fill="white"/><path d="M167.958 681.535C157.427 692.065 140.35 692.065 129.819 681.535C119.285 671.005 119.285 653.927 129.819 643.397C140.35 632.863 157.427 632.863 167.958 643.397C178.488 653.927 178.488 671.005 167.958 681.535Z" fill="#EE3E2C"/><path d="M461.048 512.045C461.048 497.454 472.876 485.626 487.467 485.626C502.057 485.626 513.885 497.454 513.885 512.045L514.007 519.031C514.007 578.583 465.729 626.861 406.178 626.861L331.959 624.025C317.679 624.025 306.103 612.448 306.103 598.168C306.103 583.891 317.679 572.315 331.959 572.315H401.78C434.536 572.315 461.094 545.76 461.094 513L461.048 512.045Z" fill="#EE3E2C"/></g></svg>